<svg width="1000" height="1000" viewBox="0 0 1000 1000" fill="none" xmlns="http://www.w3.org/2000/svg">
<path opacity="0.23" d="M678.3 403.1V349.5H578V296H654.5V242.4H344.5V296H412V349.6H269V403.2H330.3V456.8H185.7V510.4H387.4V564H292.8V617.6H432.8V671.2H339.5V724.8H628.4V671.2H565.8V617.6H785V564H675.3V510.4H721V456.8H632.9V403.2H678.3V403.1ZM519.9 456.6H443.3V403H519.9V456.6Z" fill="#C4C4C4"/>
<path opacity="0.23" d="M285.001 241.9H229.601V295.5H285.001V241.9Z" fill="#C4C4C4"/>
<path opacity="0.23" d="M806.001 349.5H750.601V403.1H806.001V349.5Z" fill="#C4C4C4"/>
<path d="M452.3 751.3H348.3V775.3H452.3V751.3Z" fill="#6B6B6B"/>
<path d="M316.9 751.3H268.3V775.3H316.9V751.3Z" fill="#6B6B6B"/>
<path d="M565.7 751.3H495.6V775.3H565.7V751.3Z" fill="#6B6B6B"/>
<path d="M651.9 751.3H611.6V775.3H651.9V751.3Z" fill="#6B6B6B"/>
<path d="M703.9 823.3H663.6V847.3H703.9V823.3Z" fill="#6B6B6B"/>
<path d="M375.615 823.366H526.915V799.366H375.615V823.366Z" fill="#6B6B6B"/>
<path d="M586.299 823.366H637.099V799.366H586.299V823.366Z" fill="#6B6B6B"/>
<path d="M481.857 847.366H608.357V823.366H481.857V847.366Z" fill="#6B6B6B"/>
<path d="M426.415 871.366H542.115V847.366H426.415V871.366Z" fill="#6B6B6B"/>
<path d="M524.299 775.3H426.399V799.3H524.299V775.3Z" fill="#26A8A1"/>
<path d="M497.699 749H471.899V787.5H497.699V749Z" fill="#FBC3AA"/>
<path d="M524.8 806H449.3C449.3 789.1 463 775.3 480 775.3H524.8V806Z" fill="#3FE0D0"/>
<path d="M500 806C500 785.6 516.6 769 537 769C557.4 769 574 785.6 574 806H500Z" fill="#3FE0D0"/>
<path d="M574 811.3H449.3C447.8 811.3 446.6 810.1 446.6 808.6C446.6 807.1 447.8 805.9 449.3 805.9H574C575.5 805.9 576.7 807.1 576.7 808.6C576.7 810.1 575.5 811.3 574 811.3Z" fill="#212D47"/>
<path d="M539 778.1C543.584 778.1 547.3 776.846 547.3 775.3C547.3 773.754 543.584 772.5 539 772.5C534.416 772.5 530.7 773.754 530.7 775.3C530.7 776.846 534.416 778.1 539 778.1Z" fill="white"/>
<path d="M490.2 778C490.2 777.5 490.3 777 490.5 776.5C491.3 774.9 493.1 774.3 494.7 775.1" stroke="#D32A3B" stroke-width="3" stroke-miterlimit="10" stroke-linecap="round" stroke-linejoin="round"/>
<path d="M496 778C496 777.5 496.1 777 496.3 776.5C497.1 774.9 498.9 774.3 500.5 775.1" stroke="#D32A3B" stroke-width="3" stroke-miterlimit="10" stroke-linecap="round" stroke-linejoin="round"/>
<path d="M501.5 778C501.5 777.5 501.6 777 501.8 776.5C502.6 774.9 504.4 774.3 506 775.1" stroke="#D32A3B" stroke-width="3" stroke-miterlimit="10" stroke-linecap="round" stroke-linejoin="round"/>
<path d="M636.8 389H623.1C618.1 389 614.1 385 614.1 380V301.8C614.1 296.8 618.1 292.8 623.1 292.8H636.8C641.8 292.8 645.8 296.8 645.8 301.8V380C645.8 384.9 641.8 389 636.8 389Z" fill="#BCBCBC"/>
<path d="M645.5 389H631.8C626.8 389 622.8 385 622.8 380V301.8C622.8 296.8 626.8 292.8 631.8 292.8H645.5C650.5 292.8 654.5 296.8 654.5 301.8V380C654.5 384.9 650.5 389 645.5 389Z" fill="#F7F7F7"/>
<path d="M606.8 407.5V450.3C606.8 469.5 591.6 485.7 572.4 486.2C552.6 486.7 536.3 470.7 536.3 451V392.6C536.3 381.8 527.6 373.1 516.8 373.1C506 373.1 497.3 381.8 497.3 392.6V451C497.3 492 530.5 525.2 571.5 525.2C612.5 525.2 645.7 492 645.7 451V407.5H606.8Z" fill="#3FE0D0"/>
<path d="M606.8 407.5V450.3C606.8 469.5 591.6 485.7 572.4 486.2C552.6 486.7 536.3 470.7 536.3 451V392.6C536.3 381.8 527.6 373.1 516.8 373.1C506 373.1 497.3 381.8 497.3 392.6V451C497.3 492 530.5 525.2 571.5 525.2C612.5 525.2 645.7 492 645.7 451V407.5H606.8Z" fill="#3FE0D0"/>
<path d="M516.799 383.1C521.999 383.1 526.299 387.4 526.299 392.6V451C526.299 463.1 530.999 474.4 539.599 483C548.199 491.6 559.499 496.3 571.599 496.3C571.999 496.3 572.299 496.3 572.699 496.3C596.999 495.7 616.899 475.1 616.899 450.4V417.6L624.199 407.6H606.899V450.4C606.899 469.6 591.699 485.8 572.499 486.3C552.699 486.8 536.399 470.8 536.399 451.1V392.7C536.399 381.9 527.699 373.2 516.899 373.2C514.099 373.2 511.399 373.8 508.899 374.9C512.799 379.8 515.699 383.1 516.799 383.1Z" fill="#1A9E91"/>
<path d="M509.7 551.1H456.6V760.7H509.7V551.1Z" fill="#212D47"/>
<path d="M509.7 749H456.6V760.7H509.7V749Z" fill="#2D3854"/>
<path d="M474.999 551.1H421.899V760.7H474.999V551.1Z" fill="#2D3854"/>
<path d="M461.3 749H435.5V787.5H461.3V749Z" fill="#FBC3AA"/>
<path d="M474.999 749H421.899V760.7H474.999V749Z" fill="#394663"/>
<path d="M506.2 583.5H421C410.8 583.5 402.5 575.2 402.5 565V549H524.7V565C524.7 575.2 516.4 583.5 506.2 583.5Z" fill="#2D3854"/>
<path d="M437.1 536.9H354.6C334.8 536.9 320.1 512.1 324.4 485.9L335.3 419C339.7 392.2 357.2 373 377.5 373H410.5L437.1 536.9Z" fill="#22314C"/>
<path d="M369.7 517C355.1 517 343.6 504.6 344.6 490.1L346.4 465.4H393L394.8 490.1C395.8 504.6 384.3 517 369.7 517Z" fill="#2D3854"/>
<path d="M524.7 527.4H402.5V555.1H524.7V527.4Z" fill="#3FE0D0"/>
<path d="M521.799 545.6H400.299C398.699 545.6 397.399 544.3 397.399 542.7V398.9C397.399 384.6 408.999 373.1 423.199 373.1H507.099C516.799 373.1 524.599 381 524.599 390.6V542.7C524.699 544.3 523.399 545.6 521.799 545.6Z" fill="#6AE7DA"/>
<path d="M478.4 400.2H456.4C451.3 400.2 447.2 396.1 447.2 391V373.2H493.6V385C493.6 393.4 486.8 400.2 478.4 400.2Z" fill="#3FE0D0"/>
<path d="M491.6 356.2L468.6 358.8L469.2 373.2H491.6C509.8 373.2 524.6 388 524.6 406.2V530C534 530 541.6 522.4 541.6 513V406.2C541.6 378.6 519.3 356.2 491.6 356.2Z" fill="#2D3854"/>
<path d="M532.3 403.4C532.3 382.3 515.2 365.2 494.1 365.2H476.9V356.2H469.2V373.2H491.6C509.8 373.2 524.6 388 524.6 406.2V530C527.4 530 530 529.3 532.3 528.2V403.4Z" fill="#25314C"/>
<path d="M476.899 391.6H457.899C452.099 391.6 447.399 386.9 447.399 381.1V326H487.399V381.1C487.399 386.9 482.699 391.6 476.899 391.6Z" fill="#FBC3AA"/>
<path opacity="0.76" d="M460.899 328.2H487.399V326H447.399V381.1C447.399 386.9 452.099 391.6 457.899 391.6H460.999V328.2H460.899Z" fill="#F2AD91"/>
<path d="M447.399 354.9C454.899 356.2 467.799 356.8 481.499 350.8C483.699 349.8 485.599 348.8 487.399 347.6V326H447.399V354.9Z" fill="#ED9C80"/>
<path d="M419.199 358H402.999C394.599 358 387.899 364.8 387.899 373.1V377.2L396.899 373.8C411.199 373.8 422.899 383.5 422.899 397.8V514.3C422.899 523 429.899 530 438.599 530C447.299 530 454.299 523 454.299 514.3V392.9C454.099 373.6 438.499 358 419.199 358Z" fill="#2D3854"/>
<path d="M432.8 397.8V528.9C426.9 526.6 422.8 521 422.8 514.3V415.4C428.3 409.9 431.8 402.3 431.8 394C431.8 391.2 431.4 388.5 430.7 385.9C432 389.5 432.8 393.6 432.8 397.8Z" fill="#25314C"/>
<path d="M625.7 424.7C641.164 424.7 653.7 412.164 653.7 396.7C653.7 381.236 641.164 368.7 625.7 368.7C610.236 368.7 597.7 381.236 597.7 396.7C597.7 412.164 610.236 424.7 625.7 424.7Z" fill="#FBC3AA"/>
<path opacity="0.76" d="M637.5 415.4C619.9 415.4 605.6 401.1 605.6 383.5C605.6 381 605.9 378.6 606.4 376.3C601 381.4 597.6 388.7 597.6 396.7C597.6 412.2 610.1 424.7 625.6 424.7C634.7 424.7 642.7 420.4 647.9 413.7C644.7 414.8 641.2 415.4 637.5 415.4Z" fill="#F2AD91"/>
<path d="M488.5 806H413C413 789.1 426.7 775.3 443.7 775.3H488.5V806Z" fill="#3FE0D0"/>
<path d="M463.7 806C463.7 785.6 480.3 769 500.7 769C521.1 769 537.7 785.6 537.7 806H463.7Z" fill="#6AE7DA"/>
<path d="M537.7 811.3H413C411.5 811.3 410.3 810.1 410.3 808.6C410.3 807.1 411.5 805.9 413 805.9H537.7C539.2 805.9 540.4 807.1 540.4 808.6C540.3 810.1 539.1 811.3 537.7 811.3Z" fill="#212D47"/>
<path d="M511.699 778.1C516.283 778.1 519.999 776.846 519.999 775.3C519.999 773.754 516.283 772.5 511.699 772.5C507.115 772.5 503.399 773.754 503.399 775.3C503.399 776.846 507.115 778.1 511.699 778.1Z" fill="white"/>
<path d="M453.899 778C453.899 777.5 453.999 777 454.199 776.5C454.999 774.9 456.799 774.3 458.399 775.1" stroke="#D32A3B" stroke-width="3" stroke-miterlimit="10" stroke-linecap="round" stroke-linejoin="round"/>
<path d="M459.7 778C459.7 777.5 459.8 777 460 776.5C460.8 774.9 462.6 774.3 464.2 775.1" stroke="#D32A3B" stroke-width="3" stroke-miterlimit="10" stroke-linecap="round" stroke-linejoin="round"/>
<path d="M465.1 778C465.1 777.5 465.2 777 465.4 776.5C466.2 774.9 468 774.3 469.6 775.1" stroke="#D32A3B" stroke-width="3" stroke-miterlimit="10" stroke-linecap="round" stroke-linejoin="round"/>
<path d="M479.5 339.5C445.3 346 412.3 323.4 405.9 289.2L385.5 181.2L536.8 152.7L552 233.3C561.4 282.6 528.9 330.2 479.5 339.5Z" fill="#FBC3AA"/>
<path opacity="0.76" d="M447.4 289.2L427 181.2L538.2 160.2L536.8 152.6L385.5 181.1L405.9 289.1C412.4 323.3 445.3 345.8 479.5 339.4C482.7 338.8 485.9 338 488.9 337.1C468.2 330.1 451.8 312.3 447.4 289.2Z" fill="#F2AD91"/>
<path d="M539.5 160.7L534 129.1L384 166.4C379.3 167.6 376.4 172.1 377.3 176.9L396.2 277.3L421 272.6L409.4 195.7L539.5 160.7Z" fill="#C65132"/>
<path d="M485.8 284.9C474.9 284.9 464.7 282.9 456.1 279.4C459.9 295.3 471.7 306.9 485.8 306.9C499.9 306.9 511.6 295.3 515.5 279.4C506.8 282.8 496.7 284.9 485.8 284.9Z" fill="white"/>
<path d="M454 241.9C453.2 237.7 456 233.6 460.2 232.9C464.4 232.1 468.5 234.9 469.2 239.1" stroke="#3F2E21" stroke-width="4" stroke-miterlimit="10" stroke-linecap="round" stroke-linejoin="round"/>
<path d="M440.7 228.1L467 215" stroke="#DD6944" stroke-width="8" stroke-miterlimit="10" stroke-linecap="round" stroke-linejoin="round"/>
<path d="M516.4 227.2C515.6 223 511.6 220.2 507.4 221C503.2 221.8 500.4 225.8 501.2 230" stroke="#3F2E21" stroke-width="4" stroke-miterlimit="10" stroke-linecap="round" stroke-linejoin="round"/>
<path d="M523.3 213.1L494 210.5" stroke="#DD6944" stroke-width="8" stroke-miterlimit="10" stroke-linecap="round" stroke-linejoin="round"/>
<path d="M530.5 166.8C532 173 543.5 215.1 543.5 215.1H548.5L537.8 158.3L530.5 166.8Z" fill="#C65132"/>
<path d="M398.299 286.1C411.775 286.1 422.699 275.176 422.699 261.7C422.699 248.225 411.775 237.3 398.299 237.3C384.824 237.3 373.899 248.225 373.899 261.7C373.899 275.176 384.824 286.1 398.299 286.1Z" fill="#FBC3AA"/>
<path d="M401.699 274.5C408.769 274.5 414.499 268.769 414.499 261.7C414.499 254.631 408.769 248.9 401.699 248.9C394.63 248.9 388.899 254.631 388.899 261.7C388.899 268.769 394.63 274.5 401.699 274.5Z" fill="#F2AD91"/>
<path d="M549.899 112.6C561.699 143.3 546.399 177.7 515.699 189.4C484.999 201.2 450.599 185.9 438.899 155.2L549.899 112.6Z" fill="#DD6944"/>
<path d="M480.7 125.7C492.1 147.5 483.6 174.4 461.8 185.8C440 197.2 413.1 188.7 401.7 166.9L480.7 125.7Z" fill="#DD6944"/>
<path d="M422.8 415.4V397.8C422.8 383.5 411.2 373.8 396.8 373.8L387.8 377.2V373.1C387.8 370.7 388.4 368.4 389.4 366.3C393.1 364.6 397.2 363.7 401.6 363.7C407.2 363.7 412.4 365.2 416.9 367.9C423.5 371.8 428.5 378.2 430.6 385.7C431.3 388.3 431.7 391 431.7 393.8C431.8 402.3 428.3 409.9 422.8 415.4Z" fill="#25314C"/>
<path d="M435.399 587C451.14 587 463.899 574.24 463.899 558.5C463.899 542.76 451.14 530 435.399 530C419.659 530 406.899 542.76 406.899 558.5C406.899 574.24 419.659 587 435.399 587Z" fill="#FBC3AA"/>
<path d="M469.4 567.2L455.1 560.2C451.3 558.3 449.7 553.7 451.6 549.9L455 543L476.2 553.4C480 555.3 481.6 559.9 479.7 563.7C477.9 567.6 473.3 569.1 469.4 567.2Z" fill="#F2AD91"/>
<path d="M439.6 589.3L443.5 571.6C444.5 566.8 449.2 563.8 454 564.9L461.5 566.6C462.1 566.7 462.5 567.3 462.3 567.9L456.8 593.1C455.8 597.9 451.1 600.9 446.3 599.8C441.6 598.7 438.5 594 439.6 589.3Z" fill="#F2AD91"/>
<path d="M446.8 563.3C455.6 553.9 454.3 539 444 531.2C423.6 515.7 409.3 492.1 406.4 465C404 443.3 409.1 422.5 419.4 405.1C423.7 397.9 423.6 388.6 418.8 381.7C409.9 368.7 390.6 369.2 382.5 382.5C367.6 407.2 360.2 436.7 363.1 467.6C366.9 507.9 387.8 542.9 418 565.8C426.9 572.5 439.3 571.3 446.8 563.3Z" fill="#3FE0D0"/>
<path d="M419.5 405.1C422.2 400.6 423.1 395.4 422.3 390.4C418.1 394.8 413.8 399 412.6 401C400.9 420.6 396 443.1 398.5 465.9C401.6 494.1 416.4 520.3 439.2 537.6C441.6 539.4 448.8 547.4 452.2 552.8C453.8 545 450.9 536.5 444 531.2C423.6 515.7 409.3 492.1 406.4 465C404.1 443.2 409.1 422.5 419.5 405.1Z" fill="#1A9E91"/>
<path d="M479.399 446C484.37 446 488.399 441.971 488.399 437C488.399 432.029 484.37 428 479.399 428C474.429 428 470.399 432.029 470.399 437C470.399 441.971 474.429 446 479.399 446Z" fill="#3FE0D0"/>
<path d="M462.899 468.3C465.385 468.3 467.399 466.286 467.399 463.8C467.399 461.315 465.385 459.3 462.899 459.3C460.414 459.3 458.399 461.315 458.399 463.8C458.399 466.286 460.414 468.3 462.899 468.3Z" fill="#3FE0D0"/>
<path d="M501.8 453.7C504.285 453.7 506.3 451.685 506.3 449.2C506.3 446.715 504.285 444.7 501.8 444.7C499.315 444.7 497.3 446.715 497.3 449.2C497.3 451.685 499.315 453.7 501.8 453.7Z" fill="#3FE0D0"/>
<path d="M491.899 472.8C494.385 472.8 496.399 470.786 496.399 468.3C496.399 465.815 494.385 463.8 491.899 463.8C489.414 463.8 487.399 465.815 487.399 468.3C487.399 470.786 489.414 472.8 491.899 472.8Z" fill="#3FE0D0"/>
<path opacity="0.69" d="M468.344 256.62C474.595 254.777 479.055 251.222 478.306 248.68C477.556 246.137 471.881 245.569 465.63 247.411C459.379 249.254 454.919 252.808 455.668 255.351C456.418 257.894 462.093 258.462 468.344 256.62Z" fill="#F2AD91"/>
<path opacity="0.69" d="M514.547 244.495C521.008 243.64 525.963 240.816 525.616 238.188C525.268 235.56 519.748 234.122 513.287 234.977C506.826 235.832 501.871 238.656 502.219 241.284C502.566 243.912 508.086 245.35 514.547 244.495Z" fill="#F2AD91"/>
<path d="M639.1 315.7C641.53 315.7 643.5 313.73 643.5 311.3C643.5 308.87 641.53 306.9 639.1 306.9C636.67 306.9 634.7 308.87 634.7 311.3C634.7 313.73 636.67 315.7 639.1 315.7Z" fill="#BCBCBC"/>
</svg>
